<svg ed:hSpacing="51" width="879" xmlns:ed="http://www.edrawsoft.cn//xml/2017/SVGExtensions/" xmlns:ev="http://www.w3.org/2001/xml-events" xmlns:xlink="http://www.w3.org/1999/xlink" xmlns="http://www.w3.org/2000/svg" id="page100" height="1042" ed:name="Page-1" viewBox="0 0 880 1042" ed:vSpacing="40"><defs/><rect width="880" height="1042" fill="#ffffff" y="0" x="0"/><g ed:width="573.912027168899" id="101" ed:topictype="mainidea" ed:height="736.2865150478797" ed:layout="map" transform="matrix(1,0,0,1,153,153)"><path stroke-linejoin="round" d="M59.7,199.1C59.3,195.6,54.3,180,69,154.1C83.7,128.2,95.8,95.3,107.8,78.9C119.7,62.5,163.3,10.1,264.6,0C279.5,0,385.7,-4.1,446.2,56.3C451.9,62.5,506.4,119,512.6,189C513.2,200.7,524.2,255.8,483.5,316.4C475.7,326.9,443.1,371.6,430.7,414.2C423.3,437.4,419,485.4,425,503.8C431,522.3,452.4,585.2,480.3,614.3C508.1,643.3,551.3,685.9,562.1,704.6C572.8,723.3,573.9,732.2,573.9,736.3C567.1,736.3,127.7,736.3,111.4,736.3C121.2,723.9,139.3,699.2,156.8,681.6C174.4,664,194.8,626.9,190.2,585.1C190.2,582.4,187.2,568.1,173.2,558.3C159.2,548.4,154.9,530.1,152.1,523.9C149.2,517.7,128.2,504,102.9,503.3C94.2,502.9,65.7,503,45.1,492C24.6,480.9,20.7,468.4,23.7,453.7C25.2,449.1,26.4,443.4,35.6,429.8C37.9,427.6,39.2,418.8,33.8,413.7C28.4,408.6,21.3,405.3,27.5,394.9C33.8,384.4,34.9,384.4,33.8,380.9C32.7,377.3,24.2,373.6,23,365.9C21.8,358.2,28,350.9,30.7,347.2C33.5,343.4,38.5,338,35,335.2C31.5,334,16.8,328.9,6.4,321.7C-4,314.5,0,302.5,6.4,292.4C12.9,282.4,30.1,275.6,55.6,238.4C58.2,233.7,64.3,226.3,62.1,217.5C59.9,208.7,60.1,202.6,59.7,199.1z" stroke-width="3" fill="#3598db" stroke="#3598db"/></g></svg>