<svg ed:hSpacing="51" width="1179" xmlns:ed="http://www.edrawsoft.cn/xml/2017/SVGExtensions/" xmlns:ev="http://www.w3.org/2001/xml-events" xmlns:xlink="http://www.w3.org/1999/xlink" xmlns="http://www.w3.org/2000/svg" id="page100" height="1430" ed:name="Page-1" viewBox="0 0 1180 1431" ed:vSpacing="40"><style type="text/css"><![CDATA[
g[ed\:togtopicid],g[ed\:hyperlink],g[ed\:comment],g[ed\:note] {cursor:pointer;}
g[id] {-moz-user-select: none;-ms-user-select: none;user-select: none;}
svg text::selection,svg tspan::selection{background-color: #4285f4;color: #ffffff;fill: #ffffff;}
.st1 {fill:#ffffff;font-family:苹方 特粗;font-size:200pt}
]]></style><defs/><rect width="1180" height="1431" fill="#ffffff" y="0" x="0"/><g ed:width="879.7430549116199" id="101" ed:topictype="mainidea" ed:height="1130.80854083599" ed:layout="map" transform="matrix(1,0,0,1,150,150)"><path stroke-linejoin="round" d="M91.5,305.8C90.9,300.3,83.3,276.5,105.8,236.7C128.4,196.9,146.9,146.4,165.2,121.2C183.5,96,250.3,15.6,405.6,0C428.5,0,591.2,-6.3,683.9,86.4C692.8,96,776.3,182.7,785.7,290.3C786.7,308.2,803.5,392.8,741.1,485.9C729.2,502,679.2,570.7,660.3,636.2C648.9,671.8,642.2,745.5,651.5,773.8C660.7,802.1,693.5,898.8,736.2,943.4C778.8,988,845.1,1053.4,861.6,1082.1C878.1,1110.8,879.7,1124.5,879.7,1130.8C869.2,1130.8,195.8,1130.8,170.7,1130.8C185.7,1111.8,213.5,1073.9,240.4,1046.8C267.4,1019.8,298.6,962.9,291.6,898.7C291.5,894.4,287,872.5,265.5,857.4C244.1,842.3,237.5,814.2,233.1,804.6C228.7,795.1,196.5,774.1,157.8,773C144.5,772.4,100.7,772.5,69.2,755.6C37.7,738.6,31.7,719.3,36.3,696.8C38.7,689.7,40.4,680.9,54.6,660.2C58.1,656.8,60.1,643.2,51.8,635.4C43.5,627.6,32.6,622.5,42.2,606.5C51.8,590.4,53.6,590.4,51.8,584.9C50.1,579.4,37.1,573.8,35.3,562C33.4,550.1,42.8,539,47.1,533.2C51.4,527.4,59,519.1,53.6,514.7C48.3,513,25.8,505.1,9.8,494.1C-6.2,483.1,0,464.5,9.8,449.1C19.8,433.8,46.1,423.3,85.2,366.1C89.1,359,98.6,347.5,95.2,334C91.8,320.5,92.1,311.2,91.5,305.8z" stroke-width="3" fill="#3598db" stroke="#3598db"/><text class="st1"><tspan y="551" style="white-space:pre" x="126">李涛</tspan></text></g></svg>